# xmcd
#
# Track frame offsets: 
#        150
#        16646
#        41376
#        52601
#        66637
#        87307
#        107390
#        110715
#        132624
#        150836
#        171140
#        188838
#        221540
#        235512
#        253657
#        269861
#        289223
#        306967
#
# Disc length: 4449 seconds
#
# Revision: 20
# Processed by: cddbd v1.5.2PL0 Copyright (c) Steve Scherf et al.
# Submitted via: ExactAudioCopy v0.95b3
#
DISCID=f8115f12
DTITLE=Tori Amos - Scarlet's Walk
DYEAR=2002
DGENRE=Alternative
TTITLE0=Amber Waves
TTITLE1=A Sorta Fairytale
TTITLE2=Wednesday
TTITLE3=Strange
TTITLE4=Carbon
TTITLE5=Crazy
TTITLE6=Wampum Prayer
TTITLE7=Don't Make Me Come To Vegas
TTITLE8=Sweet Sangria
TTITLE9=Your Cloud
TTITLE10=Pancake
TTITLE11=I Can't See New York
TTITLE12=Mrs. Jesus
TTITLE13=Taxi Ride
TTITLE14=Another Girl's Paradise
TTITLE15=Scarlet's Walk
TTITLE16=Virginia
TTITLE17=Gold Dust
EXTD=© 2002, Sony Entertainment Music Inc.\nAll Songs Written by Tori 
EXTD=Amos.\nProduced by Tori Amos.\nRecorded and Mixed by Mark Hawley 
EXTD=and Marcel van Limbeek.\nAssisted by Adam Spry at Martian Enginee
EXTD=ring, Cornwall England. YEAR: 2002
EXTT0=
EXTT1=
EXTT2=
EXTT3=
EXTT4=
EXTT5=
EXTT6=
EXTT7=
EXTT8=
EXTT9=
EXTT10=
EXTT11=
EXTT12=
EXTT13=
EXTT14=
EXTT15=
EXTT16=
EXTT17=
PLAYORDER=
